<svg width="107" height="32" viewBox="0 0 107 32" xmlns="http://www.w3.org/2000/svg" fill="none"><path d="M86.051 26.818h-64.651l5.157 5.182 59.495-5.182zM27.395 5.83v.777c-1.225-.777-2.256-1.231-3.739-1.231-4.512 0-7.993 4.146-7.993 9.263s3.416 9.263 7.993 9.263c1.483 0 2.578-.453 3.739-1.231v.777h3.996v-17.619h-3.996zm-3.803 13.862c-2.256 0-3.867-2.202-3.867-4.988 0-2.785 1.611-4.988 3.867-4.988 2.256 0 3.803 2.202 3.803 4.988.064 2.785-1.547 4.988-3.803 4.988zM59.301 5.83v10.364c0 1.943-1.354 3.563-3.287 3.563-1.934 0-3.287-1.62-3.287-3.563v-10.364h-3.996v10.364c0 4.275 2.901 7.709 7.155 7.709 1.934 0 3.416-1.101 3.416-1.101v.648h3.996v-17.619h-3.996zM96.429 23.514v-10.364c0-1.943 1.354-3.563 3.287-3.563 1.934 0 3.288 1.619 3.288 3.563v10.364h3.996v-10.364c0-4.275-2.901-7.708-7.155-7.708-1.934 0-3.416 1.101-3.416 1.101v-.713h-3.996v17.619h3.996v.065zM4.19 23.514v-6.866h2.901l5.092 6.802h5.221l-6.188-8.227c1.934-1.36 3.158-3.627 3.158-6.219 0-4.211-3.416-7.579-7.542-7.579h-6.833v22.024h4.19v.065zm0-17.878h2.707c1.869 0 3.416 1.555 3.416 3.433 0 1.879-1.547 3.433-3.416 3.433h-2.707v-6.866zM73.998 19.304c-.387.259-.838.453-1.354.453-.645 0-1.869-.518-1.869-2.138v-7.579h3.416v-4.211h-3.416v-4.405h-3.996v4.405h-2.127v4.211h2.127v7.579c0 3.952 2.965 6.283 5.93 6.283 1.096 0 2.643-.389 3.868-1.101l-2.578-3.498zM41.253 14.121l6.833-8.292h-5.543l-4.834 6.154v-11.984h-4.061v23.514h4.061v-7.255l5.93 7.255h5.543l-7.928-9.393zM83.215 5.377c-4.641 0-7.928 4.081-7.928 9.263 0 5.441 4.125 9.263 8.315 9.263 2.127 0 4.77-.712 7.026-3.951l-3.545-2.073c-2.707 4.016-7.284 2.008-7.799-2.073h11.474c1.031-6.219-3.03-10.429-7.542-10.429zm3.481 6.996h-7.155c.838-4.081 6.381-4.34 7.155 0z" fill="#947600"/></svg>